<svg xmlns="http://www.w3.org/2000/svg">





<symbol id="arrow-right" viewBox="0 0 15 15" fill="none" xmlns="http://www.w3.org/2000/svg">
  <path     fill-rule="evenodd"
    clip-rule="evenodd"
    d="M8.14645 3.14645C8.34171 2.95118 8.65829 2.95118 8.85355 3.14645L12.8536 7.14645C13.0488 7.34171 13.0488 7.65829 12.8536 7.85355L8.85355 11.8536C8.65829 12.0488 8.34171 12.0488 8.14645 11.8536C7.95118 11.6583 7.95118 11.3417 8.14645 11.1464L11.2929 8H2.5C2.22386 8 2 7.77614 2 7.5C2 7.22386 2.22386 7 2.5 7H11.2929L8.14645 3.85355C7.95118 3.65829 7.95118 3.34171 8.14645 3.14645Z"
    fill="currentColor"
  ></path>
</symbol>





<symbol id="arrow-top-right" viewBox="0 0 15 15" fill="none" xmlns="http://www.w3.org/2000/svg">
  <path     fill-rule="evenodd"
    clip-rule="evenodd"
    d="M3.64645 11.3536C3.45118 11.1583 3.45118 10.8417 3.64645 10.6465L10.2929 4L6 4C5.72386 4 5.5 3.77614 5.5 3.5C5.5 3.22386 5.72386 3 6 3L11.5 3C11.6326 3 11.7598 3.05268 11.8536 3.14645C11.9473 3.24022 12 3.36739 12 3.5L12 9.00001C12 9.27615 11.7761 9.50001 11.5 9.50001C11.2239 9.50001 11 9.27615 11 9.00001V4.70711L4.35355 11.3536C4.15829 11.5488 3.84171 11.5488 3.64645 11.3536Z"
    fill="currentColor"
  ></path>
</symbol>





<symbol id="rss" xmlns="http://www.w3.org/2000/svg" viewBox="0 0 24 24" fill="none" stroke="currentColor" stroke-width="2" stroke-linecap="round" stroke-linejoin="round" class="lucide lucide-rss">
  <path d="M4 11a9 9 0 0 1 9 9" ></path>
  <path d="M4 4a16 16 0 0 1 16 16" ></path>
  <circle cx="5" cy="19" r="1" ></circle>
</symbol></svg>